<svg id="e98GyV7hrzg1" xmlns="http://www.w3.org/2000/svg" xmlns:xlink="http://www.w3.org/1999/xlink" viewBox="0 0 1300 800" shape-rendering="geometricPrecision" text-rendering="geometricPrecision" width="1300" height="800" style="background-color:#f2f2f2"><style><![CDATA[#e98GyV7hrzg13_tr {animation: e98GyV7hrzg13_tr__tr 4000ms linear infinite normal forwards}@keyframes e98GyV7hrzg13_tr__tr { 0% {transform: translate(100px,192.855px) rotate(-90deg)} 87.5% {transform: translate(100px,192.855px) rotate(270deg)} 100% {transform: translate(100px,192.855px) rotate(270deg)}} #e98GyV7hrzg13 {animation-name: e98GyV7hrzg13_s_w, e98GyV7hrzg13_s_do;animation-duration: 4000ms;animation-fill-mode: forwards;animation-timing-function: linear;animation-direction: normal;animation-iteration-count: infinite;}@keyframes e98GyV7hrzg13_s_w { 0% {stroke-width: 3} 60% {stroke-width: 3;animation-timing-function: cubic-bezier(0.6,0.04,0.98,0.335)} 87.5% {stroke-width: 0} 100% {stroke-width: 0}}@keyframes e98GyV7hrzg13_s_do { 0% {stroke-dashoffset: 1178.19;animation-timing-function: cubic-bezier(0.445,0.05,0.55,0.95)} 60% {stroke-dashoffset: 0} 100% {stroke-dashoffset: 0}} #e98GyV7hrzg72_tr {animation: e98GyV7hrzg72_tr__tr 4000ms linear infinite normal forwards}@keyframes e98GyV7hrzg72_tr__tr { 0% {transform: translate(354.220001px,711.016549px) rotate(-4.966368deg)} 7.5% {transform: translate(354.220001px,711.016549px) rotate(-4.966368deg);animation-timing-function: cubic-bezier(0.445,0.05,0.55,0.95)} 15% {transform: translate(354.220001px,711.016549px) rotate(4.887545deg);animation-timing-function: cubic-bezier(0.445,0.05,0.55,0.95)} 20% {transform: translate(354.220001px,711.016549px) rotate(-4.966368deg)} 40% {transform: translate(354.220001px,711.016549px) rotate(-4.966368deg);animation-timing-function: cubic-bezier(0.445,0.05,0.55,0.95)} 47.5% {transform: translate(354.220001px,711.016549px) rotate(4.887545deg);animation-timing-function: cubic-bezier(0.445,0.05,0.55,0.95)} 52.5% {transform: translate(354.220001px,711.016549px) rotate(-4.966368deg)} 100% {transform: translate(354.220001px,711.016549px) rotate(-4.966368deg)}} #e98GyV7hrzg74_tr {animation: e98GyV7hrzg74_tr__tr 4000ms linear infinite normal forwards}@keyframes e98GyV7hrzg74_tr__tr { 0% {transform: translate(498.190707px,568.430036px) rotate(-16.962968deg)} 7.5% {transform: translate(498.190707px,568.430036px) rotate(-16.962968deg);animation-timing-function: cubic-bezier(0.445,0.05,0.55,0.95)} 15% {transform: translate(498.190707px,568.430036px) rotate(19.637616deg);animation-timing-function: cubic-bezier(0.445,0.05,0.55,0.95)} 20% {transform: translate(498.190707px,568.430036px) rotate(-16.962968deg)} 40% {transform: translate(498.190707px,568.430036px) rotate(-16.962968deg);animation-timing-function: cubic-bezier(0.445,0.05,0.55,0.95)} 47.5% {transform: translate(498.190707px,568.430036px) rotate(19.637616deg);animation-timing-function: cubic-bezier(0.445,0.05,0.55,0.95)} 52.5% {transform: translate(498.190707px,568.430036px) rotate(-16.962968deg)} 100% {transform: translate(498.190707px,568.430036px) rotate(-16.962968deg)}} #e98GyV7hrzg146 {animation: e98GyV7hrzg146_s_do 4000ms linear infinite normal forwards}@keyframes e98GyV7hrzg146_s_do { 0% {stroke-dashoffset: 279.48} 60% {stroke-dashoffset: 0} 100% {stroke-dashoffset: 0}} #e98GyV7hrzg162_to {animation: e98GyV7hrzg162_to__to 4000ms linear infinite normal forwards}@keyframes e98GyV7hrzg162_to__to { 0% {transform: translate(370.86428px,455.544762px);animation-timing-function: cubic-bezier(0.445,0.05,0.55,0.95)} 42.5% {transform: translate(370.86428px,437.336659px);animation-timing-function: cubic-bezier(0.445,0.05,0.55,0.95)} 87.5% {transform: translate(370.86428px,455.544762px)} 100% {transform: translate(370.864281px,455.544762px)}} #e98GyV7hrzg172_to {animation: e98GyV7hrzg172_to__to 4000ms linear infinite normal forwards}@keyframes e98GyV7hrzg172_to__to { 0% {transform: translate(546.739939px,209.037761px);animation-timing-function: cubic-bezier(0.445,0.05,0.55,0.95)} 42.5% {transform: translate(546.739939px,219.037761px);animation-timing-function: cubic-bezier(0.445,0.05,0.55,0.95)} 87.5% {transform: translate(546.739939px,209.037761px)} 100% {transform: translate(546.739942px,209.03776px)}} #e98GyV7hrzg188_to {animation: e98GyV7hrzg188_to__to 4000ms linear infinite normal forwards}@keyframes e98GyV7hrzg188_to__to { 0% {transform: translate(660.159771px,424.223168px)} 15% {transform: translate(660.159771px,424.223168px);animation-timing-function: cubic-bezier(0.25,1,0.25,1)} 22.5% {transform: translate(660.159771px,344.223168px)} 45% {transform: translate(660.159771px,344.223168px);animation-timing-function: cubic-bezier(0.25,1,0.25,1)} 52.5% {transform: translate(660.159771px,53.512475px)} 100% {transform: translate(660.159771px,53.512475px)}} #e98GyV7hrzg188_ts {animation: e98GyV7hrzg188_ts__ts 4000ms linear infinite normal forwards}@keyframes e98GyV7hrzg188_ts__ts { 0% {transform: scale(0,0)} 15% {transform: scale(0,0);animation-timing-function: cubic-bezier(0.25,1,0.25,1)} 22.5% {transform: scale(1,1)} 45% {transform: scale(1,1);animation-timing-function: cubic-bezier(0.25,1,0.25,1)} 52.5% {transform: scale(0,0)} 100% {transform: scale(0,0)}} #e98GyV7hrzg188 {animation: e98GyV7hrzg188_c_o 4000ms linear infinite normal forwards}@keyframes e98GyV7hrzg188_c_o { 0% {opacity: 1} 45% {opacity: 1;animation-timing-function: cubic-bezier(0.25,1,0.25,1)} 52.5% {opacity: 0} 100% {opacity: 0}} #e98GyV7hrzg194_to {animation: e98GyV7hrzg194_to__to 4000ms linear infinite normal forwards}@keyframes e98GyV7hrzg194_to__to { 0% {transform: translate(75.975853px,117.621368px)} 7.5% {transform: translate(75.975853px,88.550625px)} 100% {transform: translate(75.975853px,88.550625px)}} #e98GyV7hrzg196_ts {animation: e98GyV7hrzg196_ts__ts 4000ms linear infinite normal forwards}@keyframes e98GyV7hrzg196_ts__ts { 0% {transform: translate(80.781059px,96.230132px) scale(0,0)} 15% {transform: translate(80.781059px,96.230132px) scale(0,0)} 22.5% {transform: translate(80.781059px,96.230132px) scale(1,1)} 100% {transform: translate(80.781059px,96.230132px) scale(1,1)}} #e98GyV7hrzg197_ts {animation: e98GyV7hrzg197_ts__ts 4000ms linear infinite normal forwards}@keyframes e98GyV7hrzg197_ts__ts { 0% {transform: translate(80.781059px,90.068645px) scale(0,0)} 7.5% {transform: translate(80.781059px,90.068645px) scale(0,0)} 15% {transform: translate(80.781059px,90.068645px) scale(1,1)} 100% {transform: translate(80.781059px,90.068645px) scale(1,1)}} #e98GyV7hrzg203_ts {animation: e98GyV7hrzg203_ts__ts 4000ms linear infinite normal forwards}@keyframes e98GyV7hrzg203_ts__ts { 0% {transform: translate(77.999993px,67.189151px) scale(1,1)} 15% {transform: translate(77.999993px,67.189151px) scale(1.144477,1.144477)} 100% {transform: translate(77.999993px,67.189151px) scale(1.144477,1.144477)}} #e98GyV7hrzg203 {animation: e98GyV7hrzg203_s_w 4000ms linear infinite normal forwards}@keyframes e98GyV7hrzg203_s_w { 0% {stroke-width: 0} 7.5% {stroke-width: 8} 15% {stroke-width: 0} 100% {stroke-width: 0}} #e98GyV7hrzg205_to {animation: e98GyV7hrzg205_to__to 4000ms linear infinite normal forwards}@keyframes e98GyV7hrzg205_to__to { 0% {transform: translate(660.159771px,424.223168px)} 47.5% {transform: translate(660.159771px,424.223168px);animation-timing-function: cubic-bezier(0.25,1,0.25,1)} 55% {transform: translate(660.159771px,344.223168px)} 85% {transform: translate(660.159771px,344.223168px);animation-timing-function: cubic-bezier(0.25,1,0.25,1)} 100% {transform: translate(660.159771px,53.512475px)}} #e98GyV7hrzg205_ts {animation: e98GyV7hrzg205_ts__ts 4000ms linear infinite normal forwards}@keyframes e98GyV7hrzg205_ts__ts { 0% {transform: scale(0,0)} 47.5% {transform: scale(0,0);animation-timing-function: cubic-bezier(0.25,1,0.25,1)} 55% {transform: scale(1,1)} 85% {transform: scale(1,1);animation-timing-function: cubic-bezier(0.25,1,0.25,1)} 100% {transform: scale(0,0)}} #e98GyV7hrzg205 {animation: e98GyV7hrzg205_c_o 4000ms linear infinite normal forwards}@keyframes e98GyV7hrzg205_c_o { 0% {opacity: 1} 85% {opacity: 1;animation-timing-function: cubic-bezier(0.25,1,0.25,1)} 100% {opacity: 0}} #e98GyV7hrzg211_tr {animation: e98GyV7hrzg211_tr__tr 4000ms linear infinite normal forwards}@keyframes e98GyV7hrzg211_tr__tr { 0% {transform: translate(86.034996px,77.330002px) rotate(0deg)} 50% {transform: translate(86.034996px,77.330002px) rotate(0deg)} 77.5% {transform: translate(86.034996px,77.330002px) rotate(-54.869694deg)} 100% {transform: translate(86.034996px,77.330002px) rotate(-54.869694deg)}} #e98GyV7hrzg218_tr {animation: e98GyV7hrzg218_tr__tr 4000ms linear infinite normal forwards}@keyframes e98GyV7hrzg218_tr__tr { 0% {transform: translate(86.040001px,77.330963px) rotate(0deg)} 50% {transform: translate(86.040001px,77.330963px) rotate(0deg)} 75% {transform: translate(86.040001px,77.330963px) rotate(120deg)} 100% {transform: translate(86.040001px,77.330963px) rotate(120deg)}} #e98GyV7hrzg219 {animation: e98GyV7hrzg219_s_do 4000ms linear infinite normal forwards}@keyframes e98GyV7hrzg219_s_do { 0% {stroke-dashoffset: 205} 50% {stroke-dashoffset: 205} 77.5% {stroke-dashoffset: 100} 100% {stroke-dashoffset: 100}} #e98GyV7hrzg220 {animation: e98GyV7hrzg220_s_do 4000ms linear infinite normal forwards}@keyframes e98GyV7hrzg220_s_do { 0% {stroke-dashoffset: 305} 50% {stroke-dashoffset: 305} 77.5% {stroke-dashoffset: 200} 100% {stroke-dashoffset: 200}} #e98GyV7hrzg221 {animation: e98GyV7hrzg221_s_do 4000ms linear infinite normal forwards}@keyframes e98GyV7hrzg221_s_do { 0% {stroke-dashoffset: 365} 50% {stroke-dashoffset: 365} 77.5% {stroke-dashoffset: 0} 100% {stroke-dashoffset: 0}}]]></style><g id="e98GyV7hrzg2" transform="matrix(1.886223 0 0 1.886223 606.341394 18.295435)"><g id="e98GyV7hrzg3" transform="matrix(1 0 0 1 9.57251 9.50135)"><g id="e98GyV7hrzg4" transform="matrix(1.10845 0 0 1.10845 -9.76041 -21.0814)"><g id="e98GyV7hrzg5" transform="matrix(1 0 0 1 11.36 19.318)"><g id="e98GyV7hrzg6"><path id="e98GyV7hrzg7" d="M0,11.284683C0,4.900271,5.175588,-0.275317,11.56,-0.275317L149.291174,-0.275317C155.675586,-0.275317,160.851174,4.900271,160.851174,11.284683L160.851174,333.550855C160.851174,339.935267,155.675586,345.110855,149.291174,345.110855L11.56,345.110855C5.175588,345.110855,0,339.935267,0,333.550855L0,11.284683Z" transform="matrix(1.02746 0 0 1.02746 -3.60881 -3.45799)" fill="rgb(223,229,241)" stroke="none" stroke-width="0.5"/><rect id="e98GyV7hrzg8" width="157.28" height="320.512" rx="9.96" ry="9.96" transform="matrix(1 0 0 1 0.38567 11.3055)" fill="rgb(255,255,255)" stroke="none" stroke-width="0.5"/></g></g></g><rect id="e98GyV7hrzg9" width="199.451" height="22.9276" rx="11.46" ry="11.46" transform="matrix(0.131281 0 0 0.131281 77.3354 2.71887)" opacity="0.5" fill="rgb(195,204,222)" stroke="none" stroke-width="0"/></g><ellipse id="e98GyV7hrzg10" rx="1.54074" ry="1.54074" transform="matrix(1 0 0 1 121.654 13.7252)" fill="rgb(195,204,222)" stroke="none" stroke-width="0"/><g id="e98GyV7hrzg11" transform="matrix(1.100447 0 0 1.100447 -10.044704 -19.348469)"><ellipse id="e98GyV7hrzg12" rx="62.5056" ry="62.5056" transform="matrix(0.966528 0 0 0.966528 100 193.336768)" fill="rgb(34,10,71)" stroke="rgb(255,255,255)" stroke-width="5"/><g id="e98GyV7hrzg13_tr" transform="translate(100,192.855) rotate(-90)"><ellipse id="e98GyV7hrzg13" rx="62.5056" ry="62.5056" transform="scale(1.06443,1.06443) translate(0,0)" fill="none" stroke="rgb(14,213,161)" stroke-width="3" stroke-linecap="round" stroke-linejoin="round" stroke-dashoffset="1178.19" stroke-dasharray="392.73"/></g><ellipse id="e98GyV7hrzg14" rx="62.5056" ry="62.5056" transform="matrix(1.26717 0 0 1.26717 100 192.855)" opacity="0.19" fill="none" stroke="rgb(255,255,255)" stroke-width="1"/><g id="e98GyV7hrzg15" transform="matrix(0.154278 0 0 0.154278 38.227 131.325)"><g id="e98GyV7hrzg16" clip-path="url(#e98GyV7hrzg78)"><g id="e98GyV7hrzg17" transform="matrix(1 0 0 1 0.000001 18.7592)"><rect id="e98GyV7hrzg18" display="none" width="800" height="800" rx="0" ry="0" fill="rgb(58,55,117)" fill-opacity="0.6" stroke="none" stroke-width="46"/><g id="e98GyV7hrzg19" display="none" opacity="0.38"><g id="e98GyV7hrzg20" transform="matrix(1 0 0 1 -0.879999 -45.2264)"><g id="e98GyV7hrzg21" transform="matrix(1 0 0 1 0.000001 0)"><polygon id="e98GyV7hrzg22" points="149.43,237.35 118.63,237.35 118.63,183.57 149.43,183.57 167.91,210.46 149.43,237.35" fill="rgb(0,120,234)" stroke="none" stroke-width="1"/><polygon id="e98GyV7hrzg23" points="246.19,237.35 164.55,237.35 183.03,210.46 164.55,183.57 246.19,183.57 246.19,237.35" fill="rgb(0,120,234)" stroke="none" stroke-width="1"/></g></g><rect id="e98GyV7hrzg24" width="636.36" height="25.83" rx="0" ry="0" transform="matrix(1 0 0 1 163.64 536.72)" fill="rgb(0,120,234)" stroke="none" stroke-width="1"/><path id="e98GyV7hrzg25" d="M698,519.11L665,462L665,417.42L665,417.42C668.924461,417.414492,672.104492,414.234461,672.11,410.31L672.11,410.31C672.11,408.424311,671.360913,406.615854,670.027529,405.282471C668.694146,403.949087,666.885689,403.2,665,403.2L644.16,403.2C642.274311,403.2,640.465854,403.949087,639.132471,405.282471C637.799087,406.615854,637.05,408.424311,637.05,410.31L637.05,410.31C637.055508,414.234461,640.235539,417.414492,644.16,417.42L644.16,417.42L644.16,462L611.16,519.16C609.062595,522.792811,609.062868,527.268684,611.160715,530.901239C613.258563,534.533795,617.135191,536.771023,621.33,536.77L687.81,536.77C692.023897,536.788651,695.924558,534.547436,698.030596,530.897521C700.136634,527.247606,700.124957,522.748933,698,519.11Z" transform="matrix(1 0 0 1 45.9088 0)" fill="rgb(0,120,234)" stroke="none" stroke-width="1"/><path id="e98GyV7hrzg26" d="M526.88,416.2L526.88,358.34C529.697413,358.342657,532.400195,357.22462,534.392408,355.232408C536.38462,353.240195,537.502657,350.537413,537.5,347.72L537.5,347.72C537.500001,344.90432,536.380793,342.204108,534.388868,340.214059C532.396944,338.224011,529.695679,337.107346,526.88,337.11L495.81,337.11C492.996053,337.11,490.297358,338.227836,488.307597,340.217597C486.317836,342.207358,485.2,344.906053,485.2,347.72L485.2,347.72C485.197346,350.535679,486.314011,353.236944,488.304059,355.228868C490.294108,357.220793,492.99432,358.340001,495.81,358.34L495.81,416.2C464.456898,424.045101,443.873106,454.035039,447.825318,486.112174C451.777529,518.18931,479.025307,542.285939,511.345,542.285939C543.664693,542.285939,570.912471,518.18931,574.864682,486.112174C578.816894,454.035039,558.233102,424.045101,526.88,416.2Z" transform="matrix(1 0 0 1 45.9088 0)" fill="rgb(0,120,234)" stroke="none" stroke-width="1"/><g id="e98GyV7hrzg27" transform="matrix(1 0 0 1 68.3293 -25.5659)"><circle id="e98GyV7hrzg28" r="12.46" transform="matrix(1 0 0 1 493.25 204.35)" fill="rgb(0,120,234)" stroke="none" stroke-width="1"/><circle id="e98GyV7hrzg29" r="12.46" transform="matrix(1 0 0 1 556.42 313.37)" fill="rgb(0,120,234)" stroke="none" stroke-width="1"/><circle id="e98GyV7hrzg30" r="24.25" transform="matrix(1 0 0 1 477.93 263.52)" fill="rgb(0,120,234)" stroke="none" stroke-width="1"/><polyline id="e98GyV7hrzg31" points="493.25,204.35 477.93,263.52 586.85,205.24 556.42,313.37" fill="none" stroke="rgb(0,120,234)" stroke-width="7.17697" stroke-miterlimit="10"/><circle id="e98GyV7hrzg32" r="36.79" transform="matrix(1 0 0 1 586.85 205.24)" fill="rgb(0,99,192)" stroke="rgb(0,120,234)" stroke-width="7.17697" stroke-miterlimit="10"/></g><g id="e98GyV7hrzg33" transform="matrix(1 0 0 1 3.81001 -14.7714)"><circle id="e98GyV7hrzg34" r="12.46" transform="matrix(1 0 0 1 147.37 370.92)" fill="rgb(0,120,234)" stroke="none" stroke-width="1"/><circle id="e98GyV7hrzg35" r="24.25" transform="matrix(1 0 0 1 84.86 394.84)" fill="rgb(0,120,234)" stroke="none" stroke-width="1"/><polyline id="e98GyV7hrzg36" points="86.43,390.7 150.41,371 98.7,297.91" fill="none" stroke="rgb(0,120,234)" stroke-width="7.17697" stroke-miterlimit="10"/><circle id="e98GyV7hrzg37" r="36.79" transform="matrix(1 0 0 1 98.71 297.91)" fill="rgb(0,99,192)" stroke="rgb(0,120,234)" stroke-width="7.17697" stroke-miterlimit="10"/></g></g></g><g id="e98GyV7hrzg38" transform="matrix(1.01451 0 0 1.01451 -39.7691 59.9074)"><g id="e98GyV7hrzg39"><path id="e98GyV7hrzg40" d="M607.57,619L422.25,754.43C393.84,769.86,353.77,751.02,342.85,730.93L342.85,730.93C335.434009,717.285259,333.743686,701.252915,338.151061,686.361611C342.558437,671.470308,352.702288,658.940522,366.35,651.53L577.79,564.17C592.93,555.95,609.18,556.6,620.09,576.69L620.09,576.69C624.045857,583.959801,624.94908,592.504106,622.600661,600.440336C620.252242,608.376566,614.844885,615.0535,607.57,619Z" fill="rgb(214,134,113)" stroke="none" stroke-width="1"/><path id="e98GyV7hrzg41" d="M644.45,508.56C644.45,508.56,594.73,517.82,582.65,527.37C570.57,536.92,554.15,583.63,554.15,583.63L558.76,595C569.48,621.4,602.91,630,624.76,611.73C634.83,603.3,645.01,589.09,651.66,578.24C673,543.42,703,488.55,695,469.28Z" fill="rgb(214,134,113)" stroke="none" stroke-width="1"/><g id="e98GyV7hrzg42"><path id="e98GyV7hrzg43" d="M613.64,571.58C612.772761,571.531425,611.915546,571.370067,611.09,571.1L570.09,557.61C566.759976,556.699417,564.149716,554.111921,563.21,550.79C562.21,547.34,560.88,541.95,563.21,539.19L700.9,385.19C703.105958,382.570473,706.421807,381.149925,709.84,381.36C710.709178,381.419257,711.568393,381.58036,712.4,381.84L745.6,388.58C749.03,389.66,755.25,397.26,756.26,400.72C757.26502,404.166602,756.484852,407.887404,754.18,410.64L622.58,567.75C620.37796,570.374808,617.059313,571.796556,613.64,571.58Z" fill="rgb(204,216,238)" stroke="none" stroke-width="1"/><path id="e98GyV7hrzg44" d="M609,566.27C608.132978,566.219645,607.275991,566.05833,606.45,565.79L569.67,554.17C566.246891,553.086614,563.589709,550.367199,562.585845,546.919931C561.581982,543.472664,562.363723,539.751815,564.67,537L696.23,379.85C698.435958,377.230473,701.751807,375.809925,705.17,376.02C706.039178,376.079257,706.898393,376.24036,707.73,376.5L744.5,388.13C747.923109,389.213386,750.580291,391.932801,751.584155,395.380069C752.588018,398.827336,751.806277,402.548185,749.5,405.3L617.91,562.44C615.70796,565.064808,612.389313,566.486556,608.97,566.27Z" fill="rgb(255,255,255)" stroke="none" stroke-width="1"/><path id="e98GyV7hrzg45" d="M699.3,382.42L567.71,539.57C566.259227,541.29686,565.766786,543.634208,566.397524,545.799608C567.028262,547.965008,568.698831,549.672315,570.85,550.35L607.62,562C610.2329,562.828169,613.087338,561.999079,614.85,559.9L746.44,402.73C747.890032,400.999919,748.380801,398.660218,747.748194,396.493289C747.115587,394.32636,745.443097,392.618194,743.29,391.94L706.52,380.31C703.908084,379.488611,701.058558,380.321367,699.3,382.42Z" fill="rgb(33,31,36)" stroke="none" stroke-width="1"/><path id="e98GyV7hrzg46" d="M637.494564,522.560003C648.825712,532.102022,618.112337,574.74292,604.395685,565.797277C590.679033,556.851634,623.777912,513.017985,637.494564,522.560003Z" transform="matrix(0.430379 0 0 0.430379 383.654 241.849)" opacity="0" fill="rgb(96,99,192)" stroke="none" stroke-width="1.6"/><path id="e98GyV7hrzg47" d="M743.29,391.94L716.21,383.38C725.08,406.48,702.49,446.92,659.31,505.5C659.47,505.74,659.64,505.96,659.8,506.2L746.44,402.73C747.890032,400.999919,748.380801,398.660218,747.748194,396.493289C747.115587,394.32636,745.443097,392.618194,743.29,391.94Z" fill="rgb(96,99,192)" stroke="none" stroke-width="1"/></g></g><g id="e98GyV7hrzg48" transform="matrix(0.999779 -0.021 0.021 0.999779 -8.18193 5.00162)"><g id="e98GyV7hrzg49"><rect id="e98GyV7hrzg50" width="134.86" height="296.56" rx="67.43" ry="67.43" transform="matrix(0.897027 0.441976 -0.441976 0.897027 284.887 150.342)" fill="rgb(255,190,176)" stroke="none" stroke-width="1"/><path id="e98GyV7hrzg51" d="M321.88,380.44L345.79,331.89L280.48,216.83C280.48,216.83,254.88,272.54,265.87,306.76C276.86,340.98,321.88,380.44,321.88,380.44Z" fill="rgb(214,134,113)" stroke="none" stroke-width="1"/></g><g id="e98GyV7hrzg52"><path id="e98GyV7hrzg53" d="M282.14,212.21C282.04,206.13,282.14,199.41,281.73,195.45C280.1,179.23,260.89,169.36,245.28,173.95C218.96,181.69,224.97,208.58,233.68,220.73C246,238,261.12,248.81,273.13,245.67C282.69,243.16,282.03,235.55,282.13,234.12C282.15,234,282.21,216.71,282.14,212.21Z" fill="rgb(214,134,113)" stroke="none" stroke-width="1"/><path id="e98GyV7hrzg54" d="M453.41,202.22C465.6,155.99,426.74,86.22,362.07,69.14C297.4,52.06,229.61,83,214.78,139.32C203.47,182.24,236.78,221.14,265.78,240.55L267.5,282.08C267.92,291.82,280.02,322.85,344.64,377.46C355.9,386.98,365.95,393.46,380.46,391.83C399.9,389.66,410.46,373.7,412.07,354.21C413.15,341.26,414.07,331.38,422.84,302.97C424.36,298.04,429.78,296.12,442.57,293.27C449.15,291.8,451.9,286.88,451.65,280.96C451.2,270.39,439.65,246.18,452.65,205.07C452.89,204.12,453.16,203.17,453.41,202.22Z" fill="rgb(255,190,176)" stroke="none" stroke-width="1"/><path id="e98GyV7hrzg55" d="M415.17,331.25C410.17,331.11,401.48,332.03,398.41,339.61C398.41,339.61,342.73,303.13,329.77,281.25C316.81,259.37,307.48,227.39,307.48,227.39L267.85,205.39L265,215.53L267,269.75L267.52,282.08C267.94,291.82,280.04,322.85,344.66,377.46C355.92,386.98,365.97,393.46,380.48,391.83C399.92,389.66,410.48,373.7,412.09,354.2C412.581594,346.487671,413.610761,338.819046,415.17,331.25Z" opacity="0.5" fill="rgb(255,255,255)" stroke="none" stroke-width="1"/><path id="e98GyV7hrzg56" d="M357.47,309.57C363.61,314.57,369.95,319.46,375.77,323.74C383.77,313.82,398.31,308.54,419.86,312.84C420.73,309.84,421.7,306.54,422.81,302.97C385.27,284.44,365.75,299.19,357.47,309.57Z" opacity="0.68" fill="rgb(255,255,255)" stroke="none" stroke-width="1"/><path id="e98GyV7hrzg57" d="M251.37,219.39L231.43,259.07C234.12,241.67,229.78,236.92,213.9,200.14C190.49,145.91,203.64,96.83,242,66.64C289.65,29.17,345.76,35.45,416,79.71C471,114.4,470.77,144.9,454.88,172.89C452.27912,158.796492,447.665241,145.150188,441.18,132.37C434.694759,119.589812,441.07,152.19,421.28,158.18C432.07,144.39,420.69,128.94,420.69,128.94C420.69,128.94,411.85,153.27,387.69,148.54C403.32,133.54,375.34,110.37,346.21,105.76C356.75,124.17,331.61,160.07,308.68,171.41C306.2,174.41,303.68,214.13,307.47,227.41L281.85,213.3C268.67,206.44,257.46,208.31,251.37,219.39Z" fill="rgb(255,255,255)" stroke="none" stroke-width="1"/><path id="e98GyV7hrzg58" d="M282.15,213.47C282.15,212.98,282.15,212.55,282.15,212.21C282.05,206.13,282.15,199.41,281.74,195.45C280.11,179.23,260.9,169.36,245.29,173.95C218.97,181.69,224.98,208.58,233.69,220.73C236.883281,225.230439,240.459951,229.446159,244.38,233.33L268.93,184.48C276.4,184.16,280.45,180.03,281.86,213.3Z" fill="rgb(191,168,163)" stroke="none" stroke-width="1"/><g id="e98GyV7hrzg59"><path id="e98GyV7hrzg60" d="M284.52,203.86C284.43,197.78,284.52,191.06,284.11,187.11C282.49,170.88,267.85,161.78,252.24,166.37C225.92,174.11,234.62,203.58,236.85,208.63C245.35,227.76,262.76,248.49,274.76,245.35C284.33,242.85,283.67,235.24,283.76,233.8C283.79,233.67,284.6,208.36,284.52,203.86Z" fill="rgb(255,190,176)" stroke="none" stroke-width="1"/><path id="e98GyV7hrzg61" d="M259.16,176.15C271.67,176.15,275,189.71,275.01,198.48C263.96,201.24,267.01,211.48,271.2,216.84C272.038681,217.94093,272.133552,219.438031,271.440553,220.636022C270.747554,221.834014,269.402477,222.498153,268.03,222.32C256.39,220.84,250.32,211.32,257.95,203.68C263.71,197.92,264.58,190.96,261.2,186.3C257.2,180.71,249.02,181.43,244.3,188.74C244.3,184.19,248.59,176.15,259.16,176.15Z" opacity="0.38" fill="rgb(214,134,113)" stroke="none" stroke-width="1"/></g><ellipse id="e98GyV7hrzg62" rx="11" ry="9.05" transform="matrix(0.25 -0.97 0.97 0.25 407.234 227.124)" fill="rgb(52,41,76)" stroke="none" stroke-width="1"/><path id="e98GyV7hrzg63" d="M386.67,201C402.24,200.61,410.03,199.42,428.67,211.44C430.035057,207.887304,431.118402,204.232688,431.91,200.51C421.558019,192.535708,409.044953,187.862909,396,187.1C392.638656,191.559589,389.523995,196.199867,386.67,201Z" fill="rgb(255,255,255)" stroke="none" stroke-width="1"/></g></g><g id="e98GyV7hrzg64"><path id="e98GyV7hrzg65" d="M80.57,503C92.27,386.91,158.22,349,158.22,349C235,349.06,369.67,455.68,467.83,800L100.34,800C87.89,724.63,68,627.78,80.57,503Z" fill="rgb(255,255,255)" stroke="none" stroke-width="1"/><path id="e98GyV7hrzg66" d="M284.53,656.87L254.22,527.42L342.06,650.9C342.06,650.9,310.45,640.86,284.53,656.87Z" fill="rgb(204,216,238)" stroke="none" stroke-width="1"/><path id="e98GyV7hrzg67" d="M209.94,297.18C259.48,323.72,303.5,377.18,315.56,405.03C318.28,435.03,319.35,457.39,319.35,457.39C274.53,391.87,219.08,340.83,181.53,316.86L186.35,305.5C188.222648,301.131893,191.838296,297.747123,196.320299,296.166358C200.802301,294.585592,205.741376,294.953181,209.94,297.18Z" fill="rgb(52,41,76)" stroke="none" stroke-width="1"/><path id="e98GyV7hrzg68" d="M149.45,355.38L167.78,319.19C170.66,313.5,178.13,311.42,183.84,314.71C213.32,331.71,293.27,375.46,354.22,519.55C275.84,419.93,261.49,388.75,149.45,355.38Z" fill="rgb(204,216,238)" stroke="none" stroke-width="1"/><path id="e98GyV7hrzg69" d="M76.75,579C78.84,636.38,116.48,740.19,154.35,786.75C114.92,793.04,96.35,779.93,96.35,779.93C96.35,779.93,72.92,646.23,76.75,579Z" fill="rgb(204,216,238)" stroke="none" stroke-width="1"/><path id="e98GyV7hrzg70" d="M133,418.88C145.924375,418.846886,158.764928,420.95544,171,425.12C151,413.88,126.93,407.67,103.59,416.35C102.5,418.65,101.43,421.03,100.38,423.47C110.983967,420.41637,121.965115,418.871199,133,418.88Z" fill="rgb(204,216,238)" stroke="none" stroke-width="1"/><path id="e98GyV7hrzg71" d="M387.92,594.93C389.682121,595.030618,391.447214,594.793009,393.12,594.23Q387.24,581.69,381.12,569.53C376.13368,572.806088,373.805718,578.907199,375.342291,584.672186C376.878865,590.437174,381.934605,594.570266,387.89,594.93Z" fill="rgb(204,216,238)" stroke="none" stroke-width="1"/></g><g id="e98GyV7hrzg72_tr" transform="translate(354.220001,711.016549) rotate(-4.966368)"><g id="e98GyV7hrzg72" transform="translate(-359.154647,-717.682022)"><path id="e98GyV7hrzg73" d="M537.18,570.17L409.18,760.7C387.73,784.9,343.64,780.86,326.52,765.7L326.52,765.7C302.315359,744.25381,300.076886,707.247366,321.52,683.04L490.52,528.8C501.94,515.9,517.43,510.97,534.52,526.14L534.52,526.14C540.714008,531.624458,544.474429,539.345735,544.973328,547.603829C545.472227,555.861923,542.668699,563.97975,537.18,570.17Z" fill="rgb(255,190,176)" stroke="none" stroke-width="1"/><g id="e98GyV7hrzg74_tr" transform="translate(498.190707,568.430036) rotate(-16.962968)"><g id="e98GyV7hrzg74" transform="translate(-498.190707,-568.430036)"><path id="e98GyV7hrzg75" d="M475.5,486.34C489.8,470.64,512.9,452.03,518.74,447.55C524.58,443.07,531.74,447.36,528.58,459.49C525.42,471.62,505.98,494.12,504.43,501.08C502.88,508.04,498.43,520.81,492.43,533.53C486.43,546.25,470.27,561.65,469.15,534.38C467.71,499.21,471.51,490.72,475.5,486.34Z" fill="rgb(222,151,153)" stroke="none" stroke-width="1"/><path id="e98GyV7hrzg76" d="M524.35,466.35C537.72,457.9,581.35,466.35,590.52,482.35C597.45,494.46,586.79,505.79,586.79,505.79C597.96,507.79,598.13,524,590.97,533.47C583.81,542.94,566.09,564.47,553.56,578.59C524.75,611.17,495.47,592.13,486.76,585.48C474.31,575.98,461.41,564.78,469.76,546.33C478.11,527.88,501.3,480.91,524.35,466.35Z" transform="matrix(1 0 0 1 0.125936 -1.44925)" fill="rgb(255,190,176)" stroke="none" stroke-width="1"/><path id="e98GyV7hrzg77" d="M624.18,432.66C626.78,441.66,617.18,448.66,607.83,452.48C598.48,456.3,579.83,460.34,573.06,465.81C566.29,471.28,545.44,481.87,534.35,496.51C527.11,506.06,513.57,509.19,507.43,504.77C502.24,501.04,500.62,491.09,508.89,481.55C525.097304,463.164837,545.579358,449.049941,568.53,440.45C587.46,433.53,621.92,424.82,624.18,432.66Z" transform="matrix(0.955831 -0.293915 0.293915 0.955831 -121.344 174.05)" fill="rgb(255,190,176)" stroke="none" stroke-width="1"/></g></g></g></g></g><clipPath id="e98GyV7hrzg78"><ellipse id="e98GyV7hrzg79" rx="400" ry="400" transform="matrix(0.953102 0 0 0.953102 400 400)" fill="rgb(210,219,237)" stroke="none" stroke-width="0"/></clipPath></g><g id="e98GyV7hrzg80" transform="matrix(0 0 0 0 660.16 424.223)"><path id="e98GyV7hrzg81" style="mix-blend-mode:multiply" d="M529.28932,129.28932C568.34175,90.23689,631.65825,90.23689,670.71068,129.28932C709.76311,168.34175,709.76311,231.65825,670.71068,270.71068C670.7093,270.71206,670.70792,270.71344,670.70654,270.71482L600.71068,340.71068L600.71068,299.99749C574.88208,300.17991,548.99628,290.41764,529.28932,270.71068C490.23689,231.65825,490.23689,168.34175,529.28932,129.28932Z" transform="matrix(1 0 0 1 0 10)" opacity="0.58" fill="rgb(0,120,234)" stroke="none" stroke-width="0"/><path id="e98GyV7hrzg82" d="M529.28932,129.28932C568.34175,90.23689,631.65825,90.23689,670.71068,129.28932C709.76311,168.34175,709.76311,231.65825,670.71068,270.71068C670.7093,270.71206,670.70792,270.71344,670.70654,270.71482L600.71068,340.71068L600.71068,299.99749C574.88208,300.17991,548.99628,290.41764,529.28932,270.71068C490.23689,231.65825,490.23689,168.34175,529.28932,129.28932Z" fill="rgb(255,255,255)" stroke="none" stroke-width="0"/><g id="e98GyV7hrzg83" transform="matrix(0.8 0 0 0.8 531.168 138.155)"><g id="e98GyV7hrzg84"><g id="e98GyV7hrzg85"><g id="e98GyV7hrzg86"><g id="e98GyV7hrzg87"><circle id="e98GyV7hrzg88" r="13.01" transform="matrix(1 0 0 1 85.6225 78.4)" fill="rgb(160,199,255)" stroke="none" stroke-width="1"/></g></g><g id="e98GyV7hrzg89"><g id="e98GyV7hrzg90"><g id="e98GyV7hrzg91"><ellipse id="e98GyV7hrzg92" rx="84" ry="39" transform="matrix(1 0 0 1 86.04 77.33)" fill="none" stroke="rgb(160,199,255)" stroke-width="12" stroke-miterlimit="10"/></g><g id="e98GyV7hrzg93"><ellipse id="e98GyV7hrzg94" rx="39" ry="84" transform="matrix(0.866025 -0.5 0.5 0.866025 86.0378 77.3297)" fill="none" stroke="rgb(160,199,255)" stroke-width="12" stroke-miterlimit="10"/></g><g id="e98GyV7hrzg95"><ellipse id="e98GyV7hrzg96" rx="84" ry="39" transform="matrix(0.5 -0.866025 0.866025 0.5 86.0397 77.3322)" fill="none" stroke="rgb(160,199,255)" stroke-width="12" stroke-miterlimit="10"/></g></g></g></g></g></g></g><g id="e98GyV7hrzg97" transform="matrix(0 0 0 0 660.16 424.223)"><path id="e98GyV7hrzg98" style="mix-blend-mode:multiply" d="M529.28932,129.28932C568.34175,90.23689,631.65825,90.23689,670.71068,129.28932C709.76311,168.34175,709.76311,231.65825,670.71068,270.71068C670.7093,270.71206,670.70792,270.71344,670.70654,270.71482L600.71068,340.71068L600.71068,299.99749C574.88208,300.17991,548.99628,290.41764,529.28932,270.71068C490.23689,231.65825,490.23689,168.34175,529.28932,129.28932Z" transform="matrix(-1 0 0 1 1200 10)" opacity="0.58" fill="rgb(0,120,234)" stroke="none" stroke-width="0"/><path id="e98GyV7hrzg99" d="M529.28932,129.28932C568.34175,90.23689,631.65825,90.23689,670.71068,129.28932C709.76311,168.34175,709.76311,231.65825,670.71068,270.71068C670.7093,270.71206,670.70792,270.71344,670.70654,270.71482L600.71068,340.71068L600.71068,299.99749C574.88208,300.17991,548.99628,290.41764,529.28932,270.71068C490.23689,231.65825,490.23689,168.34175,529.28932,129.28932Z" transform="matrix(-1 0 0 1 1200 0)" fill="rgb(255,255,255)" stroke="none" stroke-width="0"/><g id="e98GyV7hrzg100" transform="matrix(0.8 0 0 0.8 544.666 140.965)"><g id="e98GyV7hrzg101"><path id="e98GyV7hrzg102" d="M45.67,52.47L13.16,85C-1.150074,99.959537,-0.887706,123.610891,13.750701,138.249299C28.389109,152.887706,52.040463,153.150074,67,138.84L99.51,106.33Z" transform="matrix(1 0 0 1 0.000001 0.000001)" fill="none" stroke="rgb(255,79,155)" stroke-width="4" stroke-miterlimit="10"/><path id="e98GyV7hrzg103" d="M83,89.75L42.2,130.55C33.361935,139.448901,19.478942,140.891562,9,134C15.491627,143.148903,25.686124,148.970998,36.86447,149.913448C48.042817,150.855899,59.068204,146.822859,67,138.89L99.51,106.38Z" transform="matrix(1 0 0 1 0 0.000001)" opacity="0.58" fill="rgb(255,79,155)" stroke="none" stroke-width="1"/><g id="e98GyV7hrzg104" transform="matrix(0.85394 -0.520371 0.520371 0.85394 -48.5335 38.3284)"><circle id="e98GyV7hrzg105" r="13.01" transform="matrix(1 0 0 1 44.01 124.44)" fill="rgb(255,79,155)" stroke="none" stroke-width="1"/><circle id="e98GyV7hrzg106" r="13.01" transform="matrix(1 0 0 1 44.01 86.8)" fill="rgb(255,79,155)" stroke="none" stroke-width="1"/></g></g><g id="e98GyV7hrzg107"><path id="e98GyV7hrzg108" d="M105.28,100.58L138.84,67C153.150074,52.040463,152.887706,28.389109,138.249299,13.750701C123.610891,-0.887706,99.959537,-1.150074,85,13.16L51.42,46.72Z" transform="matrix(1 0 0 1 0.000001 0.000001)" fill="none" stroke="rgb(160,199,255)" stroke-width="4" stroke-miterlimit="10"/><g id="e98GyV7hrzg109"><circle id="e98GyV7hrzg110" r="13.01" transform="matrix(1 0 0 1 114.06 27.56)" fill="rgb(35,153,110)" stroke="none" stroke-width="1"/><circle id="e98GyV7hrzg111" r="13.01" transform="matrix(1 0 0 1 114.06 62.99)" fill="rgb(255,213,61)" stroke="none" stroke-width="1"/><circle id="e98GyV7hrzg112" r="13.01" transform="matrix(1 0 0 1 82.15 45.28)" fill="rgb(255,213,61)" stroke="none" stroke-width="1"/></g><path id="e98GyV7hrzg113" d="M121.58,84.29C125.908626,79.671059,125.791521,72.450755,121.315383,67.974617C116.839245,63.498479,109.618941,63.381374,105,67.71L88.7,84L105.28,100.58Z" transform="matrix(1 0 0 1 0.000001 0.000001)" opacity="0.58" fill="rgb(160,199,255)" stroke="none" stroke-width="1"/></g></g></g><g id="e98GyV7hrzg114" transform="matrix(0 0 0 0 660.16 424.223)"><path id="e98GyV7hrzg115" style="mix-blend-mode:multiply" d="M529.28932,129.28932C568.34175,90.23689,631.65825,90.23689,670.71068,129.28932C709.76311,168.34175,709.76311,231.65825,670.71068,270.71068C670.7093,270.71206,670.70792,270.71344,670.70654,270.71482L600.71068,340.71068L600.71068,299.99749C574.88208,300.17991,548.99628,290.41764,529.28932,270.71068C490.23689,231.65825,490.23689,168.34175,529.28932,129.28932Z" transform="matrix(1 0 0 1 0 10)" opacity="0.58" fill="rgb(0,120,234)" stroke="none" stroke-width="0"/><path id="e98GyV7hrzg116" d="M529.28932,129.28932C568.34175,90.23689,631.65825,90.23689,670.71068,129.28932C709.76311,168.34175,709.76311,231.65825,670.71068,270.71068C670.7093,270.71206,670.70792,270.71344,670.70654,270.71482L600.71068,340.71068L600.71068,299.99749C574.88208,300.17991,548.99628,290.41764,529.28932,270.71068C490.23689,231.65825,490.23689,168.34175,529.28932,129.28932Z" fill="rgb(255,255,255)" stroke="none" stroke-width="0"/><g id="e98GyV7hrzg117" transform="matrix(0.8 0 0 0.8 537.6 117.937)"><g id="e98GyV7hrzg118"><g id="e98GyV7hrzg119"><g id="e98GyV7hrzg120" transform="matrix(1 0 0 1 0 29.0707)"><line id="e98GyV7hrzg121" x1="78" y1="115.26" x2="78" y2="87.7" fill="none" stroke="rgb(35,153,110)" stroke-width="6.00954" stroke-miterlimit="10"/><path id="e98GyV7hrzg122" d="M95.4,96.12C89.22,100.49,80.91,96.12,80.91,96.12C80.91,96.12,79.54,86.81,85.72,82.45C91.9,78.09,100.22,82.45,100.22,82.45C100.22,82.45,101.58,91.76,95.4,96.12Z" transform="matrix(0 0 0 0 80.7811 96.2301)" fill="rgb(35,153,110)" stroke="none" stroke-width="1"/><path id="e98GyV7hrzg123" d="M57.09,86.82C66.01,95.54,80.69,90.54,80.69,90.54C80.69,90.54,85.35,75.75,76.42,67C67.49,58.25,52.82,63.28,52.82,63.28C52.82,63.28,48.16,78.11,57.09,86.82Z" transform="matrix(0 0 0 0 80.7811 90.0686)" fill="rgb(35,153,110)" stroke="none" stroke-width="1"/></g><g id="e98GyV7hrzg124"><g id="e98GyV7hrzg125"><path id="e98GyV7hrzg126" d="M96,190.06L60,190.06C55.029437,190.06,51,186.030563,51,181.06L51,180.06L105,180.06L105,181.06C105,186.030563,100.970563,190.06,96,190.06Z" fill="rgb(160,199,255)" stroke="none" stroke-width="1"/><rect id="e98GyV7hrzg127" width="54.03" height="11.15" rx="5.57" ry="5.57" transform="matrix(1 0 0 1 50.99 159.27)" fill="rgb(160,199,255)" stroke="none" stroke-width="1"/></g><path id="e98GyV7hrzg128" d="M134,78.12C134.012298,52.666671,116.857427,30.406751,92.240872,23.933939C67.624316,17.461127,41.73897,28.403817,29.229641,50.571108C16.720312,72.738399,20.734027,100.55357,39,118.28C46.674603,125.731189,51.003773,135.973284,51,146.67L51,148.12L105,148.12L105,146.67C104.996227,135.973284,109.325397,125.731189,117,118.28L117,118.28C127.878772,107.752942,134.014476,93.258243,134,78.12ZM78,114C58.117749,114,42,97.882251,42,78C42,58.117749,58.117749,42,78,42C97.882251,42,114,58.117749,114,78C114,97.882251,97.882251,114,78,114Z" transform="matrix(1 0 0 1 0.000001 0)" fill="rgb(255,213,61)" stroke="none" stroke-width="1"/></g><path id="e98GyV7hrzg129" d="M130.25,130.39C151.458332,109.243063,157.8288,77.397531,146.387591,49.719289C134.946383,22.041048,107.94973,3.988306,78,3.988306C48.05027,3.988306,21.053617,22.041048,9.612409,49.719289C-1.8288,77.397531,4.541668,109.243063,25.75,130.39" fill="none" stroke="rgb(255,213,61)" stroke-width="0" stroke-linecap="round" stroke-miterlimit="10" stroke-dasharray="0,58.12"/></g></g></g></g><g id="e98GyV7hrzg130" transform="matrix(0 0 0 0 660.16 424.223)"><path id="e98GyV7hrzg131" style="mix-blend-mode:multiply" d="M529.28932,129.28932C568.34175,90.23689,631.65825,90.23689,670.71068,129.28932C709.76311,168.34175,709.76311,231.65825,670.71068,270.71068C670.7093,270.71206,670.70792,270.71344,670.70654,270.71482L600.71068,340.71068L600.71068,299.99749C574.88208,300.17991,548.99628,290.41764,529.28932,270.71068C490.23689,231.65825,490.23689,168.34175,529.28932,129.28932Z" transform="matrix(-1 0 0 1 1200 10)" opacity="0.58" fill="rgb(0,120,234)" stroke="none" stroke-width="0"/><path id="e98GyV7hrzg132" d="M529.28932,129.28932C568.34175,90.23689,631.65825,90.23689,670.71068,129.28932C709.76311,168.34175,709.76311,231.65825,670.71068,270.71068C670.7093,270.71206,670.70792,270.71344,670.70654,270.71482L600.71068,340.71068L600.71068,299.99749C574.88208,300.17991,548.99628,290.41764,529.28932,270.71068C490.23689,231.65825,490.23689,168.34175,529.28932,129.28932Z" transform="matrix(-1 0 0 1 1200 0)" fill="rgb(14,213,161)" stroke="none" stroke-width="0"/><g id="e98GyV7hrzg133" transform="matrix(5.06944 0 0 5.06944 -3006.06 -1710.16)"><circle id="e98GyV7hrzg134" r="4" transform="matrix(0.6 0 0 0.6 709.71 390.847)" fill="rgb(51,127,113)" stroke="none" stroke-width="1"/><circle id="e98GyV7hrzg135" r="4" transform="matrix(0.621844 0 0 0.621844 728.17 371.697)" fill="rgb(14,213,161)" stroke="none" stroke-width="1"/><circle id="e98GyV7hrzg136" r="4" transform="matrix(0.898654 0 0 0.898654 723.913 366.398)" fill="rgb(14,213,161)" stroke="none" stroke-width="1"/><g id="e98GyV7hrzg137" clip-path="url(#e98GyV7hrzg143)"><g id="e98GyV7hrzg138" transform="matrix(1 0 0 1 5.71 1.84676)"><ellipse id="e98GyV7hrzg139" rx="30" ry="30" transform="matrix(0.678418 0 0 0.665437 705.501 375.108)" fill="rgb(210,219,237)" stroke="none" stroke-width="0"/><circle id="e98GyV7hrzg140" r="4" transform="matrix(1 0 0 1 679 372)" fill="rgb(14,213,161)" stroke="none" stroke-width="1"/><path id="e98GyV7hrzg141" d="M691.19856,375.95325L698.10856,382.32325L710.24856,369.64325" transform="matrix(1 0 0 1 5.195 0.046757)" fill="none" stroke="rgb(255,255,255)" stroke-width="4" stroke-linecap="square" stroke-miterlimit="10" stroke-dashoffset="26.99" stroke-dasharray="26.99"/><circle id="e98GyV7hrzg142" r="4" transform="matrix(1 0 0 1 679 372)" fill="rgb(255,255,255)" stroke="none" stroke-width="1"/></g><clipPath id="e98GyV7hrzg143"><path id="e98GyV7hrzg144" d="M-30,0C-30,-3.730098,-29.319239,-7.301195,-28.07518,-10.595827C-26.768584,-14.056079,-24.840633,-17.211372,-22.427415,-19.925621C-16.932243,-26.106271,-8.920836,-30,0,-30C16.568542,-30,30,-16.568542,30,0C30,16.568542,16.568542,30,0,30C-16.568542,30,-30,16.568542,-30,0Z" transform="matrix(0.678418 0 0 0.665437 711.211 376.954)" fill="rgb(210,219,237)" stroke="none" stroke-width="0"/></clipPath></g></g></g></g></g><path id="e98GyV7hrzg145" d="M80.225974,281.365826Q88.647093,282.943547,90.487155,273.743235C92.327217,264.542923,93.935531,268.120978,95.512728,279.424218C97.089925,290.727458,100.370947,296.426734,104.187308,280.475682C108.07775,264.214996,80.228034,290.05546,121.857049,280.339708" transform="matrix(1.1662 0.053092 -0.053092 1.1662 1.74376 -35.893)" fill="none" stroke="rgb(223,229,241)" stroke-width="2" stroke-linecap="round" stroke-linejoin="round"/><path id="e98GyV7hrzg146" d="M80.225974,281.365826Q88.647093,282.943547,90.487155,273.743235C92.327217,264.542923,93.935531,268.120978,95.512728,279.424218C97.089925,290.727458,100.370947,296.426734,104.187308,280.475682C108.07775,264.214996,80.228034,290.05546,121.857049,280.339708" transform="matrix(1.1662 0.053092 -0.053092 1.1662 1.74376 -35.893)" fill="none" stroke="rgb(14,213,161)" stroke-width="2" stroke-linecap="round" stroke-linejoin="round" stroke-dashoffset="279.48" stroke-dasharray="93.16"/><rect id="e98GyV7hrzg147" width="162.849" height="34.4493" rx="6.68" ry="6.68" transform="matrix(1 0 0 1 18.8297 337.006)" fill="rgb(223,229,241)" stroke="none" stroke-width="0"/><g id="e98GyV7hrzg148" transform="matrix(1 0 0 1 0.000004 0.000001)"><rect id="e98GyV7hrzg149" width="64.3903" height="6.15838" rx="3.08" ry="3.08" transform="matrix(1.44402 0 0 1.44402 53.5097 79.2186)" fill="rgb(223,229,241)" stroke="none" stroke-width="0"/><rect id="e98GyV7hrzg150" width="32.9573" height="6.15838" rx="3.08" ry="3.08" transform="matrix(1.44402 0 0 1.44402 76.2046 94.8106)" fill="rgb(223,229,241)" stroke="none" stroke-width="0"/></g><rect id="e98GyV7hrzg151" width="21.6199" height="21.6199" rx="5.99" ry="5.99" transform="matrix(0.77056 0 0 0.77056 158.265 42.4967)" opacity="0.44" fill="rgb(210,219,237)" stroke="none" stroke-width="0"/><path id="e98GyV7hrzg152" d="M45.498259,339.300892Q53.63419,344.9486,53.63419,344.9486L53.63419,354.16117C53.63419,355.43142,52.60444,356.46117,51.33419,356.46117L48.10852,356.46117L48.10852,350.33678L43.34728,350.33678L43.34728,356.46117L40.12162,356.46117C38.85137,356.46117,37.82162,355.43142,37.82162,354.16117L37.82162,344.9486Q37.82162,344.9486,45.498259,339.300892Z" transform="matrix(0.816671 0 0 0.816671 -0.840313 69.9151)" fill="rgb(255,255,255)" stroke="none" stroke-width="0"/><g id="e98GyV7hrzg153" transform="matrix(0.707107 -0.707107 0.707107 0.707107 -217.663 178.934)"><g id="e98GyV7hrzg154" transform="matrix(0.874886 0 0 0.874886 1.13094 31.4404)"><rect id="e98GyV7hrzg155" width="22.8806" height="10.4708" rx="5.24" ry="5.24" transform="matrix(0.698653 0 0 0.698653 89.0091 342.059)" fill="rgb(255,255,255)" stroke="none" stroke-width="0"/><path id="e98GyV7hrzg156" d="M11.129327,10.372082L11.129327,-0.228119L17.640576,0C20.534548,0,22.880576,2.343962,22.880576,5.235386C22.880576,8.12681,20.534548,10.470772,17.640576,10.470772L11.129327,10.372082Z" transform="matrix(0.698653 0 0 0.698653 89.0091 342.059)" opacity="0.43" fill="rgb(223,229,241)" stroke="none" stroke-width="0"/></g></g><g id="e98GyV7hrzg157" transform="matrix(1 0 0 1 7.78936 6.9417)"><ellipse id="e98GyV7hrzg158" rx="7.08217" ry="7.08217" transform="matrix(0.814784 0 0 0.814784 113.78 347.162)" fill="none" stroke="rgb(255,255,255)" stroke-width="2"/><path id="e98GyV7hrzg159" d="M119.21516,345.74327C119.98308,345.31665,119.47113,352.6119,113.97747,352.80214C108.48381,352.99238,107.70787,347.15112,107.65367,347.15112C107.59947,347.15112,109.49332,342.94121,113.83971,347.15112C118.18609,351.36103,118.44724,346.16989,119.21516,345.74326L119.21516,345.74327ZM111.46459,349.90493C112.28112,349.90493,112.94304,349.243,112.94304,348.42648C112.94304,347.60995,112.28111,346.94803,111.46459,346.94803C110.64806,346.94803,109.98614,347.60996,109.98614,348.42648C109.98614,349.24301,110.64807,349.90493,111.46459,349.90493Z" transform="matrix(1 0 0 1 0.000001 0.000001)" fill="rgb(255,255,255)" stroke="none" stroke-width="0.8"/></g><path id="e98GyV7hrzg160" d="M144.71364,346.18898C144.71364,342.81523,147.4486,340.08027,150.82235,340.08027C154.1961,340.08027,156.93106,342.81523,156.93106,346.18898C156.93106,349.56273,150.97832,356.4828,150.97832,356.4828C150.97832,356.4828,144.71365,349.56272,144.71365,346.18898L144.71364,346.18898ZM150.92632,348.68445C152.53423,348.68445,153.8377,347.38098,153.8377,345.77307C153.8377,344.16516,152.53423,342.86169,150.92632,342.86169C149.31841,342.86169,148.01494,344.16516,148.01494,345.77307C148.01494,347.38098,149.31841,348.68445,150.92632,348.68445Z" transform="matrix(0.838645 0 0 0.838645 34.9598 62.6188)" fill="rgb(255,255,255)" stroke="none" stroke-width="0"/></g><g id="e98GyV7hrzg161" transform="matrix(0.743347 0 0 0.743347 195.196055 54.717142)"><g id="e98GyV7hrzg162_to" transform="translate(370.86428,455.544762)"><g id="e98GyV7hrzg162" transform="scale(0.582059,0.582059) translate(-172.375,-228.499999)"><path id="e98GyV7hrzg163" d="M334.75,139.28L334.75,406C334.75,428.643675,316.393675,447,293.75,447L51,447C28.356325,447,10,428.643675,10,406L10,51C10,28.356325,28.356325,10,51,10L197,10C206.659874,9.998216,215.970628,13.611931,223.1,20.13L322.17,110.75C330.184546,118.070839,334.750172,128.425157,334.75,139.28Z" fill="rgb(255,255,255)" stroke="rgb(0,86,163)" stroke-width="21" stroke-miterlimit="10"/><polygon id="e98GyV7hrzg164" points="82.37,213.79 110.41,242.51 232.77,120.16 175.83,120.16 82.37,213.79" opacity="0.88" fill="rgb(0,198,244)" stroke="none" stroke-width="1"/><polygon id="e98GyV7hrzg165" points="125.29,257.4 153.85,228.84 232.51,307.5 175.48,307.5 125.29,257.4" fill="rgb(0,86,163)" stroke="none" stroke-width="1"/><polygon id="e98GyV7hrzg166" points="174.79,207.21 124.95,257.05 153.79,285.85 232.43,207.21 174.79,207.21" opacity="0.88" fill="rgb(0,198,244)" stroke="none" stroke-width="1"/><path id="e98GyV7hrzg167" d="M167.56,405.5L167.56,397.55L175.51,397.55L175.51,405.5Z" fill="rgb(0,86,163)" stroke="none" stroke-width="1"/><path id="e98GyV7hrzg168" d="M211.25,405.5L203.86,405.5L203.86,401.09C202.747524,402.701674,201.257513,404.016592,199.52,404.92C197.955959,405.73226,196.222309,406.163959,194.46,406.18C191.024909,406.189846,187.766234,404.65959,185.58,402.01Q181.89,397.83,181.89,390.35Q181.89,382.71,185.48,378.73C187.769094,376.117637,191.09747,374.653005,194.57,374.73C197.961314,374.745882,201.166187,376.284074,203.3,378.92L203.3,364L211.25,364ZM190,389.82C190,393.03,190.45,395.35,191.33,396.82C192.403988,398.784032,194.481994,399.986885,196.72,399.94C198.557439,399.935293,200.286285,399.069019,201.39,397.6C202.67,396.04,203.31,393.72,203.31,390.6C203.31,387.14,202.69,384.66,201.45,383.14C200.284072,381.705269,198.533741,380.872257,196.685,380.872257C194.836259,380.872257,193.085928,381.705269,191.92,383.14Q190,385.34,190,389.82Z" fill="rgb(0,86,163)" stroke="none" stroke-width="1"/><path id="e98GyV7hrzg169" d="M225.05,384.6L217.82,383.3C218.417295,380.722717,219.90455,378.438717,222.02,376.85Q225.02,374.75,230.85,374.75Q236.18,374.75,238.78,376.01C240.308643,376.665404,241.592518,377.784858,242.45,379.21C243.16,380.5,243.51,382.88,243.51,386.33L243.43,395.62C243.376897,397.577529,243.504101,399.535791,243.81,401.47C244.115187,402.858558,244.595708,404.202672,245.24,405.47L237.37,405.47C237.16,404.95,236.9,404.16,236.6,403.12C236.47,402.65,236.37,402.34,236.32,402.19C235.06375,403.449889,233.58563,404.466944,231.96,405.19C230.379576,405.862789,228.677618,406.203181,226.96,406.19C224.284098,406.341323,221.655682,405.436458,219.64,403.67C217.873051,402.030263,216.896755,399.70974,216.96,397.3C216.934466,395.7024,217.35711,394.129609,218.18,392.76C218.99403,391.429363,220.179314,390.365736,221.59,389.7C223.615375,388.821752,225.741469,388.197023,227.92,387.84C230.550598,387.426387,233.137984,386.773683,235.65,385.89L235.65,385.1C235.774191,383.896671,235.360634,382.699918,234.52,381.83C233.77,381.17,232.34,380.83,230.25,380.83C229.084803,380.763935,227.927025,381.05338,226.93,381.66C226.019303,382.426335,225.363553,383.451817,225.05,384.6ZM235.69,391.06C234.098525,391.548929,232.48308,391.956128,230.85,392.28C229.341643,392.508891,227.87975,392.978183,226.52,393.67C225.552644,394.272535,224.963293,395.330344,224.96,396.47C224.954452,397.565695,225.407742,398.613702,226.21,399.36C227.057039,400.180445,228.20147,400.620889,229.38,400.58C230.867363,400.562724,232.309197,400.064573,233.49,399.16C234.394339,398.5173,235.059235,397.592074,235.38,396.53C235.644289,395.254591,235.748426,393.951193,235.69,392.65Z" fill="rgb(0,86,163)" stroke="none" stroke-width="1"/><path id="e98GyV7hrzg170" d="M259,405.5L251,405.5L251,375.43L258.39,375.43L258.39,379.71C259.237957,378.155293,260.399063,376.793292,261.8,375.71C262.825737,375.050803,264.020724,374.703424,265.24,374.71C267.09105,374.720865,268.903591,375.239722,270.48,376.21L268,383.19C266.904422,382.405766,265.605797,381.954372,264.26,381.89C263.237966,381.855294,262.236251,382.18094,261.43,382.81C260.488867,383.698874,259.849045,384.859643,259.6,386.13C259.16,387.74,258.93,391.13,258.93,396.22Z" fill="rgb(0,86,163)" stroke="none" stroke-width="1"/><path id="e98GyV7hrzg171" d="M287.72,375.43L287.72,381.77L282.28,381.77L282.28,393.89C282.226195,395.321989,282.279678,396.755997,282.44,398.18C282.547457,398.588456,282.799811,398.943884,283.15,399.18C283.542535,399.452916,284.012092,399.593082,284.49,399.58C285.590964,399.496005,286.671341,399.23604,287.69,398.81L288.37,404.99C286.375059,405.80585,284.234996,406.207325,282.08,406.17C280.751681,406.190106,279.432669,405.945341,278.2,405.45C277.195836,405.080241,276.318106,404.431485,275.67,403.58C275.06742,402.644472,274.684511,401.584636,274.55,400.48C274.325948,398.6189,274.239047,396.743845,274.29,394.87L274.29,381.77L270.64,381.77L270.64,375.43L274.29,375.43L274.29,369.43L282.29,364.79L282.29,375.41Z" fill="rgb(0,86,163)" stroke="none" stroke-width="1"/></g></g><g id="e98GyV7hrzg172_to" transform="translate(546.739939,209.037761)"><g id="e98GyV7hrzg172" transform="scale(0.589357,0.589357) translate(-172.375,-228.499999)"><path id="e98GyV7hrzg173" d="M334.75,139.28L334.75,406C334.75,428.643675,316.393675,447,293.75,447L51,447C28.356325,447,10,428.643675,10,406L10,51C10,28.356325,28.356325,10,51,10L197,10C206.659874,9.998216,215.970628,13.611931,223.1,20.13L322.17,110.75C330.184546,118.070839,334.750172,128.425157,334.75,139.28Z" fill="rgb(255,255,255)" stroke="rgb(0,216,255)" stroke-width="21" stroke-miterlimit="10"/><circle id="e98GyV7hrzg174" r="20.62" transform="matrix(1 0 0 1 172.37 216.24)" fill="rgb(0,216,255)" stroke="none" stroke-width="1"/><ellipse id="e98GyV7hrzg175" rx="107.49" ry="41.89" transform="matrix(1 0 0 1 172.37 216.24)" fill="none" stroke="rgb(0,216,255)" stroke-width="11" stroke-miterlimit="10"/><ellipse id="e98GyV7hrzg176" rx="107.49" ry="41.89" transform="matrix(0.5 -0.866025 0.866025 0.5 172.374342 216.243258)" fill="none" stroke="rgb(0,216,255)" stroke-width="11" stroke-miterlimit="10"/><ellipse id="e98GyV7hrzg177" rx="41.89" ry="107.49" transform="matrix(0.866025 -0.5 0.5 0.866025 172.37682 216.244279)" fill="none" stroke="rgb(0,216,255)" stroke-width="11" stroke-miterlimit="10"/><path id="e98GyV7hrzg178" d="M237.87,404.63L237.87,396.63L245.87,396.63L245.87,404.63Z" fill="rgb(0,195,255)" stroke="none" stroke-width="1"/><path id="e98GyV7hrzg179" d="M261.77,374.55L261.77,403.7C261.887103,406.424791,261.634812,409.152895,261.02,411.81C260.54822,413.356154,259.518062,414.671476,258.13,415.5C256.475997,416.451549,254.586668,416.916081,252.68,416.84C251.822339,416.831352,250.966562,416.757808,250.12,416.62C249.109349,416.464373,248.107879,416.254064,247.12,415.99L248.51,409.19C248.88,409.26,249.24,409.33,249.57,409.37C249.874442,409.416679,250.182,409.44008,250.49,409.44C251.19394,409.473171,251.891363,409.291841,252.49,408.92C252.951037,408.619431,253.301977,408.177247,253.49,407.66C253.730638,406.199789,253.814448,404.718033,253.74,403.24L253.74,374.55ZM253.77,370.48L253.77,363.11L261.77,363.11L261.77,370.48Z" fill="rgb(0,195,255)" stroke="none" stroke-width="1"/><path id="e98GyV7hrzg180" d="M267.29,396.05L275.29,394.83C275.535088,396.216559,276.269601,397.469134,277.36,398.36C278.640546,399.231352,280.17393,399.653384,281.72,399.56C283.346205,399.671034,284.966946,399.276328,286.36,398.43C287.021937,397.926526,287.395473,397.130896,287.36,396.3C287.377159,395.744074,287.172021,395.204238,286.79,394.8C285.994538,394.252611,285.084878,393.893535,284.13,393.75Q274.5,391.63,271.93,389.88C269.6325,388.407939,268.276974,385.837375,268.36,383.11C268.331736,380.56505,269.465708,378.146156,271.44,376.54Q274.53,373.87,281.02,373.87Q287.19,373.87,290.19,375.87C292.241454,377.290103,293.7115,379.40285,294.33,381.82L286.82,383.21C286.556375,382.123726,285.910269,381.168767,285,380.52C283.843207,379.828725,282.505297,379.501216,281.16,379.58C279.608179,379.463688,278.053688,379.767677,276.66,380.46C276.093841,380.803321,275.748626,381.41788,275.75,382.08C275.759484,382.660979,276.055107,383.199836,276.54,383.52Q277.62,384.32,283.98,385.76Q290.34,387.2,292.86,389.3C294.553838,390.787136,295.471654,392.969254,295.35,395.22C295.341871,397.99377,294.067721,400.612037,291.89,402.33Q288.44,405.33,281.67,405.33Q275.52,405.33,271.94,402.84C269.605498,401.227746,267.949366,398.809438,267.29,396.05Z" fill="rgb(0,195,255)" stroke="none" stroke-width="1"/></g></g></g><g id="e98GyV7hrzg181" transform="matrix(0.817902 0 0 0.817902 172.450373 -4.33839)"><rect id="e98GyV7hrzg182" width="31.677885" height="31.677885" rx="0" ry="0" transform="matrix(0.707107 0.707107 -0.707107 0.707107 319.435071 641.161879)" fill="rgb(88,255,246)" stroke="none" stroke-width="0"/><rect id="e98GyV7hrzg183" width="31.677885" height="31.677885" rx="0" ry="0" transform="matrix(0.707107 0.707107 -0.707107 0.707107 514.266343 641.161879)" fill="rgb(130,159,216)" stroke="none" stroke-width="0"/><rect id="e98GyV7hrzg184" width="126.563606" height="20.310481" rx="0" ry="0" transform="matrix(1 0 0 1 319.435072 652.361704)" opacity="0.3" fill="rgb(88,255,246)" stroke="none" stroke-width="0"/><rect id="e98GyV7hrzg185" width="126.563606" height="20.310481" rx="0" ry="0" transform="matrix(0.519615 0 0 1 446.758265 652.361704)" opacity="0.3" fill="rgb(130,159,216)" stroke="none" stroke-width="0"/><rect id="e98GyV7hrzg186" width="31.677885" height="31.677885" rx="0" ry="0" transform="matrix(0.707107 0.707107 -0.707107 0.707107 441.598313 641.161879)" fill="rgb(88,255,246)" stroke="none" stroke-width="0"/></g><g id="e98GyV7hrzg187" transform="matrix(0.305486 0 0 0.305486 666.640612 283.204447)"><g id="e98GyV7hrzg188_to" transform="translate(660.159771,424.223168)"><g id="e98GyV7hrzg188_ts" transform="scale(0,0)"><g id="e98GyV7hrzg188" transform="translate(-600.855999,-340.71068)"><path id="e98GyV7hrzg189" style="mix-blend-mode:multiply" d="M529.28932,129.28932C568.34175,90.23689,631.65825,90.23689,670.71068,129.28932C709.76311,168.34175,709.76311,231.65825,670.71068,270.71068C670.7093,270.71206,670.70792,270.71344,670.70654,270.71482L600.71068,340.71068L600.71068,299.99749C574.88208,300.17991,548.99628,290.41764,529.28932,270.71068C490.23689,231.65825,490.23689,168.34175,529.28932,129.28932Z" transform="matrix(1 0 0 1 0 10)" opacity="0.58" fill="rgb(0,120,234)" stroke="none" stroke-width="0"/><path id="e98GyV7hrzg190" d="M529.28932,129.28932C568.34175,90.23689,631.65825,90.23689,670.71068,129.28932C709.76311,168.34175,709.76311,231.65825,670.71068,270.71068C670.7093,270.71206,670.70792,270.71344,670.70654,270.71482L600.71068,340.71068L600.71068,299.99749C574.88208,300.17991,548.99628,290.41764,529.28932,270.71068C490.23689,231.65825,490.23689,168.34175,529.28932,129.28932Z" fill="rgb(255,255,255)" stroke="none" stroke-width="0"/><g id="e98GyV7hrzg191" transform="matrix(0.8 0 0 0.8 537.600005 117.936718)"><g id="e98GyV7hrzg192"><g id="e98GyV7hrzg193"><g id="e98GyV7hrzg194_to" transform="translate(75.975853,117.621368)"><g id="e98GyV7hrzg194" transform="translate(-75.975853,-88.550625)"><line id="e98GyV7hrzg195" x1="78" y1="115.26" x2="78" y2="87.7" fill="none" stroke="rgb(35,153,110)" stroke-width="6.00954" stroke-miterlimit="10"/><g id="e98GyV7hrzg196_ts" transform="translate(80.781059,96.230132) scale(0,0)"><path id="e98GyV7hrzg196" d="M95.4,96.12C89.22,100.49,80.91,96.12,80.91,96.12C80.91,96.12,79.54,86.81,85.72,82.45C91.9,78.09,100.22,82.45,100.22,82.45C100.22,82.45,101.58,91.76,95.4,96.12Z" transform="translate(-80.781059,-96.230119)" fill="rgb(35,153,110)" stroke="none" stroke-width="1"/></g><g id="e98GyV7hrzg197_ts" transform="translate(80.781059,90.068645) scale(0,0)"><path id="e98GyV7hrzg197" d="M57.09,86.82C66.01,95.54,80.69,90.54,80.69,90.54C80.69,90.54,85.35,75.75,76.42,67C67.49,58.25,52.82,63.28,52.82,63.28C52.82,63.28,48.16,78.11,57.09,86.82Z" transform="translate(-80.781059,-90.068623)" fill="rgb(35,153,110)" stroke="none" stroke-width="1"/></g></g></g><g id="e98GyV7hrzg198"><g id="e98GyV7hrzg199"><path id="e98GyV7hrzg200" d="M96,190.06L60,190.06C55.029437,190.06,51,186.030563,51,181.06L51,180.06L105,180.06L105,181.06C105,186.030563,100.970563,190.06,96,190.06Z" fill="rgb(160,199,255)" stroke="none" stroke-width="1"/><rect id="e98GyV7hrzg201" width="54.03" height="11.15" rx="5.57" ry="5.57" transform="matrix(1 0 0 1 50.99 159.27)" fill="rgb(160,199,255)" stroke="none" stroke-width="1"/></g><path id="e98GyV7hrzg202" d="M134,78.12C134.012298,52.666671,116.857427,30.406751,92.240872,23.933939C67.624316,17.461127,41.73897,28.403817,29.229641,50.571108C16.720312,72.738399,20.734027,100.55357,39,118.28C46.674603,125.731189,51.003773,135.973284,51,146.67L51,148.12L105,148.12L105,146.67C104.996227,135.973284,109.325397,125.731189,117,118.28L117,118.28C127.878772,107.752942,134.014476,93.258243,134,78.12ZM78,114C58.117749,114,42,97.882251,42,78C42,58.117749,58.117749,42,78,42C97.882251,42,114,58.117749,114,78C114,97.882251,97.882251,114,78,114Z" fill="rgb(255,213,61)" stroke="none" stroke-width="1"/></g><g id="e98GyV7hrzg203_ts" transform="translate(77.999993,67.189151) scale(1,1)"><path id="e98GyV7hrzg203" d="M130.25,130.39C151.458332,109.243063,157.8288,77.397531,146.387591,49.719289C134.946383,22.041048,107.94973,3.988306,78,3.988306C48.05027,3.988306,21.053617,22.041048,9.612409,49.719289C-1.8288,77.397531,4.541668,109.243063,25.75,130.39" transform="translate(-77.999993,-67.189151)" fill="none" stroke="rgb(255,213,61)" stroke-width="0" stroke-linecap="round" stroke-miterlimit="10" stroke-dasharray="0,58.12"/></g></g></g></g></g></g></g></g><g id="e98GyV7hrzg204" transform="matrix(0.31615 0 0 0.31615 659.73194 284.049822)"><g id="e98GyV7hrzg205_to" transform="translate(660.159771,424.223168)"><g id="e98GyV7hrzg205_ts" transform="scale(0,0)"><g id="e98GyV7hrzg205" transform="translate(-600.855999,-340.71068)"><path id="e98GyV7hrzg206" style="mix-blend-mode:multiply" d="M529.28932,129.28932C568.34175,90.23689,631.65825,90.23689,670.71068,129.28932C709.76311,168.34175,709.76311,231.65825,670.71068,270.71068C670.7093,270.71206,670.70792,270.71344,670.70654,270.71482L600.71068,340.71068L600.71068,299.99749C574.88208,300.17991,548.99628,290.41764,529.28932,270.71068C490.23689,231.65825,490.23689,168.34175,529.28932,129.28932Z" transform="matrix(1 0 0 1 0 10)" opacity="0.58" fill="rgb(0,120,234)" stroke="none" stroke-width="0"/><path id="e98GyV7hrzg207" d="M529.28932,129.28932C568.34175,90.23689,631.65825,90.23689,670.71068,129.28932C709.76311,168.34175,709.76311,231.65825,670.71068,270.71068C670.7093,270.71206,670.70792,270.71344,670.70654,270.71482L600.71068,340.71068L600.71068,299.99749C574.88208,300.17991,548.99628,290.41764,529.28932,270.71068C490.23689,231.65825,490.23689,168.34175,529.28932,129.28932Z" fill="rgb(255,255,255)" stroke="none" stroke-width="0"/><g id="e98GyV7hrzg208" transform="matrix(0.8 0 0 0.8 531.167999 138.155387)"><g id="e98GyV7hrzg209"><g id="e98GyV7hrzg210"><g id="e98GyV7hrzg211_tr" transform="translate(86.034996,77.330002) rotate(0)"><g id="e98GyV7hrzg211" transform="translate(-86.034996,-77.330002)"><g id="e98GyV7hrzg212"><circle id="e98GyV7hrzg213" r="13.01" transform="matrix(1 0 0 1 87.11 64.34)" fill="rgb(35,153,110)" stroke="none" stroke-width="1"/><circle id="e98GyV7hrzg214" r="13.01" transform="matrix(1 0 0 1 99.03 76.26)" fill="rgb(255,213,61)" stroke="none" stroke-width="1"/><circle id="e98GyV7hrzg215" r="13.01" transform="matrix(1 0 0 1 84.96 90.32)" fill="rgb(35,153,110)" stroke="none" stroke-width="1"/><circle id="e98GyV7hrzg216" r="13.01" transform="matrix(1 0 0 1 73.04 78.4)" fill="rgb(255,79,155)" stroke="none" stroke-width="1"/></g></g></g><g id="e98GyV7hrzg217"><g id="e98GyV7hrzg218_tr" transform="translate(86.040001,77.330963) rotate(0)"><g id="e98GyV7hrzg218" transform="translate(-86.040001,-77.330963)"><ellipse id="e98GyV7hrzg219" rx="84" ry="39" transform="matrix(1 0 0 1 86.04 77.33)" fill="none" stroke="rgb(160,199,255)" stroke-width="4" stroke-linecap="round" stroke-miterlimit="10" stroke-dashoffset="205" stroke-dasharray="150,20,1,20"/><ellipse id="e98GyV7hrzg220" rx="39" ry="84" transform="matrix(0.866025 -0.5 0.5 0.866025 86.037831 77.329721)" fill="none" stroke="rgb(160,199,255)" stroke-width="4" stroke-linecap="round" stroke-miterlimit="10" stroke-dashoffset="305" stroke-dasharray="150,20,1,20"/><ellipse id="e98GyV7hrzg221" rx="84" ry="39" transform="matrix(0.5 -0.866025 0.866025 0.5 86.039752 77.332197)" fill="none" stroke="rgb(160,199,255)" stroke-width="4" stroke-linecap="round" stroke-miterlimit="10" stroke-dashoffset="365" stroke-dasharray="360,25,1.46,25"/></g></g></g></g></g></g></g></g></g></g></svg>